<svg xmlns="http://www.w3.org/2000/svg" viewBox="0 0 128 128">
  <defs>
    <linearGradient id="bag" x1="0" y1="0" x2="1" y2="1">
      <stop offset="0%" stop-color="#f6c453"/>
      <stop offset="100%" stop-color="#e59f1f"/>
    </linearGradient>
  </defs>
  <circle cx="64" cy="64" r="62" fill="#0f172a"/>
  <path d="M44 33h40l-8 14H52z" fill="#d97706"/>
  <path d="M64 42c-20 0-33 14-33 35 0 20 13 33 33 33s33-13 33-33c0-21-13-35-33-35z" fill="url(#bag)"/>
  <circle cx="64" cy="77" r="16" fill="#fff2cc"/>
  <path d="M64 64v26M56 72h10c4 0 6-2 6-5s-3-5-7-5h-8c-3 0-5 2-5 5s2 5 5 5h16c4 0 6 2 6 5s-2 5-6 5H58" stroke="#12643f" stroke-width="4" fill="none" stroke-linecap="round"/>
</svg>
